# xmcd
#
# Track frame offsets:
#	150
#	12238
#	27000
#	38381
#	49528
#	63710
#	78934
#	94795
#	109916
#	120751
#
# Disc length: 1778
#
# Revision: 1
# Processed by: cddbd v1.5.1PL0 Copyright (c) Steve Scherf et al.
# Submitted via: NeoAudio 1.50.6
# Normalized: r0:TDELIM( - )
#
DISCID=6906f00a
DTITLE=Various Artist - Country Classics - Hits of the 70's Vol 2
DYEAR=1900
DGENRE=Country
TTITLE0=Johnny Paycheck - Take This Job and Shove It
TTITLE1=Kenny Dale - Bluest Heartache of the Year
TTITLE2=Charlie Rich - Rollin' With the Flow
TTITLE3=John Wesley Ryles - Once in a Lifetime Thing
TTITLE4=Margo Smith - It Only Hurts for a Little While
TTITLE5=Randy Barlow - Slow and Easy
TTITLE6=Cal Smith - I Just Came Home to Count the Memories
TTITLE7=Charlie Rich with Janie Fricke - On My Knees
TTITLE8=Narvel Felts - Everlasting Love
TTITLE9=Jeanne Pruett - Back to Back
EXTD=
EXTT0=
EXTT1=
EXTT2=
EXTT3=
EXTT4=
EXTT5=
EXTT6=
EXTT7=
EXTT8=
EXTT9=
PLAYORDER=
